<?xml version="1.0" encoding="UTF-8"?>
<svg width="20px" height="21px" viewBox="0 0 20 21" version="1.1" xmlns="http://www.w3.org/2000/svg" xmlns:xlink="http://www.w3.org/1999/xlink">
    <!-- Generator: Sketch 64 (93537) - https://sketch.com -->
    <title>burgburger</title>
    <desc>Created with Sketch.</desc>
    <g id="Page-1" stroke="none" stroke-width="1" fill="none" fill-rule="evenodd">
        <g id="Letter-Copy" transform="translate(-338.000000, -609.000000)" fill-rule="nonzero">
            <g id="Group-2" transform="translate(313.000000, 609.000000)">
                <g id="burger" transform="translate(25.000000, 0.000000)">
                    <path d="M1.27142857,11 C1.13571429,11 1,11.125 1,11.25 C1,11.375 1.13571429,11.5 1.27142857,11.5 L10.69,11.5 C11.2057143,11.5 11.6942857,11.8 11.9385714,12.25 C12.1014286,12.55 12.5085714,12.75 12.97,12.75 C13.3228571,12.75 13.6757143,12.625 13.8928571,12.4 C14.0014286,12.275 14.1642857,12.225 14.3542857,12.225 C14.5171429,12.225 14.68,12.325 14.7614286,12.45 C15.0057143,12.775 15.4671429,13 15.9557143,13 C16.5528571,13 17.0685714,12.725 17.2585714,12.3 C17.4757143,11.825 17.9642857,11.5 18.5342857,11.5 L19.7285714,11.5 C19.8642857,11.5 20,11.375 20,11.25 C20,11.125 19.8642857,11 19.7285714,11 L1.27142857,11 Z" id="Path" fill="#EFDD47"></path>
                    <path d="M10.3296703,0 L9.67032967,0 C5.19230769,0 1.29120879,2.85384615 0,7 L20,7 C18.7087912,2.85384615 14.8076923,0 10.3296703,0 Z M3.40659341,5.51923077 C3.02197802,5.51923077 2.71978022,5.22307692 2.71978022,4.84615385 C2.71978022,4.46923077 3.02197802,4.17307692 3.40659341,4.17307692 C3.79120879,4.17307692 4.09340659,4.46923077 4.09340659,4.84615385 C4.09340659,5.22307692 3.79120879,5.51923077 3.40659341,5.51923077 Z M6.15384615,2.82692308 C5.76923077,2.82692308 5.46703297,2.53076923 5.46703297,2.15384615 C5.46703297,1.77692308 5.76923077,1.48076923 6.15384615,1.48076923 C6.53846154,1.48076923 6.84065934,1.77692308 6.84065934,2.15384615 C6.84065934,2.53076923 6.53846154,2.82692308 6.15384615,2.82692308 Z M7.8021978,5.51923077 C7.41758242,5.51923077 7.11538462,5.22307692 7.11538462,4.84615385 C7.11538462,4.46923077 7.41758242,4.17307692 7.8021978,4.17307692 C8.18681319,4.17307692 8.48901099,4.46923077 8.48901099,4.84615385 C8.48901099,5.22307692 8.18681319,5.51923077 7.8021978,5.51923077 Z M10,2.82692308 C9.61538462,2.82692308 9.31318681,2.53076923 9.31318681,2.15384615 C9.31318681,1.77692308 9.61538462,1.48076923 10,1.48076923 C10.3846154,1.48076923 10.6868132,1.77692308 10.6868132,2.15384615 C10.6868132,2.53076923 10.3846154,2.82692308 10,2.82692308 Z M12.1978022,5.51923077 C11.8131868,5.51923077 11.510989,5.22307692 11.510989,4.84615385 C11.510989,4.46923077 11.8131868,4.17307692 12.1978022,4.17307692 C12.5824176,4.17307692 12.8846154,4.46923077 12.8846154,4.84615385 C12.8846154,5.22307692 12.5824176,5.51923077 12.1978022,5.51923077 Z M13.8461538,2.82692308 C13.4615385,2.82692308 13.1593407,2.53076923 13.1593407,2.15384615 C13.1593407,1.77692308 13.4615385,1.48076923 13.8461538,1.48076923 C14.2307692,1.48076923 14.532967,1.77692308 14.532967,2.15384615 C14.532967,2.53076923 14.2307692,2.82692308 13.8461538,2.82692308 Z M16.5934066,5.51923077 C16.2087912,5.51923077 15.9065934,5.22307692 15.9065934,4.84615385 C15.9065934,4.46923077 16.2087912,4.17307692 16.5934066,4.17307692 C16.978022,4.17307692 17.2802198,4.46923077 17.2802198,4.84615385 C17.2802198,5.22307692 16.978022,5.51923077 16.5934066,5.51923077 Z" id="Shape" fill="#C7AB68"></path>
                    <path d="M1.35135135,15 L4.05405405,15 C4.05405405,15 4.05405405,15 4.05405405,15 L18.6486486,15 C19.4054054,15 20,14.34 20,13.5 C20,12.66 19.4054054,12 18.6486486,12 L17.9459459,12 C17.8378378,12 17.7297297,12.09 17.6756757,12.21 C17.3513514,13.17 16.4324324,13.8 15.4054054,13.8 C14.7567568,13.8 14.1351351,13.53 13.7027027,13.11 C13.3513514,13.35 12.8918919,13.5 12.4324324,13.5 C11.5405405,13.5 10.7567568,12.99 10.4324324,12.18 C10.3783784,12.06 10.2702703,12 10.1891892,12 L1.35135135,12 C0.594594595,12 0,12.66 0,13.5 C0,14.34 0.594594595,15 1.35135135,15 Z" id="Path" fill="#964444"></path>
                    <path d="M20,8.66666667 C20,8.3 19.7557143,8 19.4571429,8 L1.54285714,8 C1.24428571,8 1,8.3 1,8.66666667 L1,9.33333333 C1,9.7 1.24428571,10 1.54285714,10 L19.4571429,10 C19.7557143,10 20,9.7 20,9.33333333 L20,8.66666667 Z" id="Path" fill="#7CD069"></path>
                    <path d="M4.50142857,16 C4.50142857,16 4.50142857,16 4.50142857,16 C4.50142857,16 4.50142857,16 4.50142857,16 L1.27142857,16 C1.13571429,16 1,16.1388889 1,16.2777778 C1,16.4166667 1.13571429,16.5555556 1.27142857,16.5555556 L2.30285714,16.5555556 C2.76428571,16.5555556 3.19857143,16.75 3.49714286,17.0833333 L4.31142857,18 L5.34285714,17.0277778 C5.64142857,16.75 6.04857143,16.5833333 6.45571429,16.5833333 L19.7285714,16.5555556 L19.7285714,16.5555556 C19.8642857,16.5555556 20,16.4166667 20,16.2777778 C20,16.1388889 19.8642857,16 19.7285714,16 L4.50142857,16 Z" id="Path" fill="#000000"></path>
                    <path d="M19.3766938,18 C19.3495935,18 19.3224932,18 19.3224932,18 C19.3224932,18 19.295393,18 19.295393,18 C19.2682927,18 19.2682927,18 19.2411924,18 L5.98915989,18 C5.85365854,18 5.71815718,18.05 5.6097561,18.125 L4.17344173,19.35 C4.06504065,19.45 3.9295393,19.475 3.79403794,19.475 L3.76693767,19.475 C3.63143631,19.475 3.49593496,19.425 3.38753388,19.325 L2.19512195,18.15 C2.08672087,18.05 1.95121951,18 1.78861789,18 L0,18 C0.27100271,19.7 1.84281843,21 3.76693767,21 L16.2330623,21 C18.1300813,21 19.7289973,19.7 20,18 L19.4850949,18 C19.4308943,18.025 19.403794,18.025 19.3766938,18 Z" id="Path" fill="#C7AB68"></path>
                </g>
            </g>
        </g>
    </g>
</svg>