<?xml version="1.0" encoding="UTF-8"?>
<svg width="20px" height="17px" viewBox="0 0 20 17" version="1.1" xmlns="http://www.w3.org/2000/svg" xmlns:xlink="http://www.w3.org/1999/xlink">
    <!-- Generator: Sketch 64 (93537) - https://sketch.com -->
    <title>cats5cat5-2</title>
    <desc>Created with Sketch.</desc>
    <g id="Page-1" stroke="none" stroke-width="1" fill="none" fill-rule="evenodd">
        <g id="Letter-Copy" transform="translate(-278.000000, -589.000000)" fill="#000000" fill-rule="nonzero">
            <g id="Group-2" transform="translate(278.000000, 587.000000)">
                <g id="cat5-2" transform="translate(0.000000, 2.000000)">
                    <path d="M12.5,8 C11.66,8 11,8.68 11,9.5 C11,10.34 11.68,11 12.5,11 C13.32,11 14,10.32 14,9.5 C14,8.68 13.34,8 12.5,8 Z M12.5,10.22 C12.1,10.22 11.8,9.9 11.8,9.52 C11.8,9.12 12.12,8.82 12.5,8.82 C12.88,8.82 13.2,9.14 13.2,9.52 C13.2,9.9 12.9,10.22 12.5,10.22 Z" id="Shape"></path>
                    <path d="M13.7690332,13.2083333 C13.5398659,13.1041667 13.2648652,13.1666667 13.1502815,13.375 C12.7606972,14.0208333 11.8898615,14.3125 11.1106927,14.0416667 L10.9731923,14 C10.9731923,13.9791667 10.9731923,13.9583333 10.9731923,13.9375 L10.9731923,13.75 C11.9127782,13.5833333 12.6002801,12.8333333 12.6002801,11.9375 C12.6002801,11.8125 12.5315299,11.6875 12.439863,11.625 C11.33986,10.7916667 9.78152246,10.7916667 8.6815195,11.625 C8.56693585,11.7083333 8.5211024,11.8125 8.5211024,11.9375 C8.5211024,12.7916667 9.18568752,13.5208333 10.0565232,13.7291667 L10.0565232,13.9375 C10.0565232,13.9583333 10.0565232,13.9791667 10.0565232,14 L9.89610611,14.0625 C9.13985407,14.3333333 8.24610165,14.0625 7.85651727,13.3958333 C7.74193363,13.1875 7.44401616,13.125 7.2377656,13.2291667 C7.00859832,13.3333333 6.93984813,13.6041667 7.05443177,13.7916667 C7.51276634,14.5416667 8.38360203,15 9.30027116,15 C9.62110536,15 9.94193956,14.9375 10.239857,14.8333333 L10.491941,14.7291667 L10.7440251,14.8333333 C11.0419425,14.9375 11.3627767,15 11.6836109,15 C12.6002801,15 13.4711157,14.5625 13.9294503,13.7916667 C14.0669507,13.5625 13.9982005,13.3125 13.7690332,13.2083333 Z M10.5606912,12.9166667 C10.0106897,12.9166667 9.55235518,12.5625 9.46068826,12.0833333 C10.1252734,11.6875 10.9961091,11.6875 11.6836109,12.0833333 C11.5690273,12.5625 11.1106927,12.9166667 10.5606912,12.9166667 Z" id="Shape"></path>
                    <path d="M19.5764055,11.6742643 L17.8151442,11.549928 C17.8374387,11.3219782 17.8597331,11.0940285 17.8597331,10.8660787 L17.8597331,9.72632978 C17.8597331,8.85597608 17.6813776,8.00634509 17.3692553,7.19815951 L17.3692553,1.33363338 C17.3692553,0.93990194 17.1686053,0.546170503 16.8341886,0.297498017 C16.4997719,0.048825531 16.053883,-0.0547880049 15.6302885,0.0281028238 C13.8467328,0.380388846 12.3752993,1.3958015 11.8179381,2.61844122 C11.2382825,2.49410498 10.6363325,2.43193686 10.0566769,2.43193686 C10.0566769,2.43193686 10.0343824,2.43193686 10.0343824,2.43193686 C10.0343824,2.43193686 10.012088,2.43193686 10.012088,2.43193686 C9.4101379,2.43193686 8.83048229,2.49410498 8.25082668,2.61844122 C7.67117107,1.4165242 6.17744316,0.401111553 4.41618188,0.048825531 C3.9925874,-0.0340652977 3.54669847,0.048825531 3.21228177,0.318220724 C2.87786507,0.56689321 2.67721505,0.960624647 2.67721505,1.35435608 L2.67721505,7.19815951 C2.34279835,8.00634509 2.18673723,8.85597608 2.18673723,9.72632978 L2.18673723,10.8660787 C2.18673723,11.0940285 2.20903167,11.3219782 2.23132612,11.549928 L0.403181506,11.6742643 C0.157942595,11.694987 -0.0204129775,11.8814913 0.00188146901,12.1094411 C0.0241759155,12.3166682 0.224825934,12.4824498 0.447770399,12.4824498 C0.447770399,12.4824498 0.470064846,12.4824498 0.492359293,12.4824498 L2.40968169,12.3373909 C2.49885948,12.6482315 2.61033171,12.9590721 2.74409839,13.24919 L1.22807603,13.8915939 C1.00513156,13.9952075 0.915953776,14.2438799 1.00513156,14.451107 C1.0720149,14.596166 1.25037047,14.6997795 1.4064316,14.6997795 C1.47331494,14.6997795 1.54019828,14.6790568 1.58478717,14.6583341 L3.12310398,13.9952075 C4.2824152,15.798083 6.40038762,17 8.7858934,17 L11.260577,17 C13.6683772,17 15.7640552,15.798083 16.9233664,14.0159302 L18.4616832,14.6790568 C18.5285665,14.6997795 18.5954499,14.7205022 18.6400388,14.7205022 C18.8183943,14.7205022 18.9744555,14.6376114 19.0413388,14.4718297 C19.152811,14.2646027 19.0413388,14.0159302 18.8183943,13.9123166 L17.3246664,13.2699127 C17.4584331,12.9797948 17.5699053,12.6689542 17.6590831,12.3581136 L19.5095222,12.5031725 C19.5318166,12.5031725 19.5318166,12.5031725 19.5541111,12.5031725 C19.7770555,12.5031725 19.9777056,12.3373909 20,12.1301638 C20,11.8814913 19.8216444,11.694987 19.5764055,11.6742643 Z M15.8309385,0.857011111 C15.9869996,0.815565696 16.1430608,0.857011111 16.2768274,0.960624647 C16.4105941,1.06423818 16.4774774,1.18857443 16.4774774,1.35435608 L16.4774774,5.60251105 C16.0984719,5.08444337 15.6525829,4.62854382 15.1398107,4.23481238 L15.1398107,2.86711371 C15.1398107,2.63916393 14.9391606,2.45265956 14.6939217,2.45265956 C14.4486828,2.45265956 14.2480328,2.63916393 14.2480328,2.86711371 L14.2480328,3.61313117 C13.757555,3.32301326 13.2224883,3.07434078 12.6651271,2.88783641 C13.1778994,1.93459188 14.4040939,1.14712901 15.8309385,0.857011111 Z M3.56899291,1.33363338 C3.56899291,1.18857443 3.63587625,1.04351548 3.76964293,0.93990194 C3.90340961,0.836288404 4.05947074,0.815565696 4.21553186,0.836288404 C5.64237644,1.1264063 6.868571,1.91386918 7.35904882,2.846391 C6.80168766,3.03289536 6.26662094,3.28156785 5.77614312,3.57168575 L5.77614312,2.82566829 C5.77614312,2.59771851 5.5754931,2.41121415 5.33025419,2.41121415 C5.08501528,2.41121415 4.88436526,2.59771851 4.88436526,2.82566829 L4.88436526,4.19336697 C4.39388743,4.5870984 3.92570406,5.06372067 3.54669847,5.56106564 L3.54669847,1.33363338 L3.56899291,1.33363338 Z M16.9679553,10.8660787 C16.9679553,11.0733057 16.9456608,11.2805328 16.9233664,11.4877599 L15.407344,11.3841464 C15.1621051,11.3634236 14.9391606,11.5292053 14.9391606,11.7571551 C14.9168662,11.9851049 15.0952218,12.1923319 15.3404607,12.2130546 L16.7673053,12.3166682 C16.7004219,12.5238953 16.6112441,12.751845 16.5220663,12.9383494 L15.6302885,12.5653407 C15.407344,12.4617271 15.1398107,12.5653407 15.0283384,12.7725677 C14.9168662,12.9797948 15.0283384,13.2284673 15.2512829,13.3113581 L16.0984719,13.6843669 C15.0952218,15.1764018 13.311666,16.1710917 11.260577,16.1710917 L8.7858934,16.1710917 C6.73480432,16.1710917 4.9512486,15.1764018 3.92570406,13.6636441 L4.77289302,13.2906354 C4.99583749,13.1870219 5.08501528,12.9590721 4.99583749,12.751845 C4.88436526,12.544618 4.6168319,12.4410044 4.39388743,12.544618 L3.50210957,12.9176267 C3.41293179,12.7103996 3.323754,12.5031725 3.25687066,12.2752228 L4.6168319,12.1716092 C4.86207081,12.1508865 5.04042638,11.9643822 5.01813194,11.7157097 C4.99583749,11.4877599 4.79518747,11.3219782 4.54994856,11.3427009 L3.10080954,11.4463145 C3.07851509,11.2390874 3.05622064,11.0318603 3.05622064,10.8246333 L3.05622064,9.68488437 C3.05622064,8.87669879 3.21228177,8.06851321 3.54669847,7.32249575 C4.19323742,5.76829271 5.48631531,4.52493028 7.09151546,3.82035824 L7.09151546,5.10516608 C7.09151546,5.33311586 7.29216548,5.51962023 7.53740439,5.51962023 C7.78264331,5.51962023 7.98329332,5.33311586 7.98329332,5.10516608 L7.98329332,3.53024034 C8.00558777,3.53024034 8.02788222,3.50951763 8.05017666,3.50951763 C8.54065449,3.38518139 9.05342676,3.30229056 9.54390458,3.26084514 L9.54390458,5.12588879 C9.54390458,5.35383857 9.7445546,5.54034293 9.98979351,5.54034293 C10.2350324,5.54034293 10.4356824,5.35383857 10.4356824,5.12588879 L10.4356824,3.26084514 C10.9484547,3.28156785 11.4389325,3.36445868 11.9294104,3.50951763 C11.9517048,3.50951763 11.9739993,3.53024034 11.9962937,3.53024034 L11.9962937,5.12588879 C11.9962937,5.35383857 12.1969437,5.54034293 12.4421826,5.54034293 C12.6874215,5.54034293 12.8880716,5.35383857 12.8880716,5.12588879 L12.8880716,3.84108094 C14.4932717,4.52493028 15.7863496,5.78901542 16.4328886,7.34321846 C16.7450108,8.08923591 16.9233664,8.89742149 16.9233664,9.70560707 L16.9233664,10.8660787 L16.9679553,10.8660787 Z" id="Shape"></path>
                    <circle id="Oval" cx="7.5" cy="9.5" r="1"></circle>
                </g>
            </g>
        </g>
    </g>
</svg>